# xmcd CD database file
# Copyright (C) 1993-1998 Ti Kan
# 
# Track frame offsets:
#     150
#     19335
#     35855
#     59943
#     78183
#     96553
#     111115
#     125647
#     145635
#     163062
#     188810
#     214233
#     223010
#     241800
# 
# Disc length: 3615 seconds
# 
# Revision: 1
# Processed by: cddbd v1.4b41PL1 Copyright (c) Steve Scherf et al.
# Submitted via: DiscPlay 4.0.4
# 
DISCID=d70e1d0e
DTITLE=Bobby Mcferrin - Paper Music
DYEAR=1900
DGENRE=
TTITLE0=Wolfgang Amadeus Mozart
TTITLE1=Luigi Boccherini
TTITLE2=Gabriel Faur 
TTITLE3=Igor Stravinsky
TTITLE4=Antonio Vivaldi
TTITLE5=Antonio Vivaldi
TTITLE6=Antonio Vivaldi
TTITLE7=Felix Mendelssohn
TTITLE8=Johann Sebastian Bach
TTITLE9=Wolfgang Amadeus Mozart
TTITLE10=Wolfgang Amadeus Mozart
TTITLE11=Wolfgang Amadeus Mozart
TTITLE12=Wolfgang Amadeus Mozart
TTITLE13=Peter Ilyich Tchaikovsky
EXTD=
EXTT0=
EXTT1=
EXTT2=
EXTT3=
EXTT4=
EXTT5=
EXTT6=
EXTT7=
EXTT8=
EXTT9=
EXTT10=
EXTT11=
EXTT12=
EXTT13=
PLAYORDER=
